HIERARCHY
ROOT Hips
{
	OFFSET 0.00 0.00 0.00
	CHANNELS 6 Xposition Yposition Zposition Xrotation Yrotation Zrotation
	JOINT Spine
	{
		OFFSET 0.00000 1.15266 1.72900
		CHANNELS 3 Xrotation Yrotation Zrotation
		JOINT Spine1
		{
			OFFSET 0.00000 0.40032 2.27031
			CHANNELS 3 Xrotation Yrotation Zrotation
			JOINT Spine2
			{
				OFFSET 0.00000 0.20092 2.29656
				CHANNELS 3 Xrotation Yrotation Zrotation
				JOINT Spine3
				{
					OFFSET 0.00000 0.00000 2.30533
					CHANNELS 3 Xrotation Yrotation Zrotation
					JOINT Neck
					{
						OFFSET 0.00000 -0.86449 6.05149
						CHANNELS 3 Xrotation Yrotation Zrotation
						JOINT Head
						{
							OFFSET 0.00000 -0.55043 3.12167
							CHANNELS 3 Xrotation Yrotation Zrotation
							End Site
							{
								OFFSET 0.00000 0.00000 3.73175
							}
						}
					}
					JOINT RightShoulder
					{
						OFFSET -0.78828 -1.31380 4.25672
						CHANNELS 3 Xrotation Yrotation Zrotation
						JOINT RightArm
						{
							OFFSET -3.91513 0.00000 0.00000
							CHANNELS 3 Xrotation Yrotation Zrotation
							JOINT RightForeArm
							{
								OFFSET -6.91491 0.00000 0.00000
								CHANNELS 3 Xrotation Yrotation Zrotation
								JOINT RightHand
								{
									OFFSET -6.09622 0.00000 0.00000
									CHANNELS 3 Xrotation Yrotation Zrotation
									JOINT RightHandEnd
									{
										OFFSET -1.74995 0.00000 0.00000
										CHANNELS 3 Xrotation Yrotation Zrotation
										End Site
										{
											OFFSET -1.74995 0.00000 0.00000
										}
									}
									JOINT RightHandThumb1
									{
										OFFSET -0.69998 -1.16663 -0.46665
										CHANNELS 3 Yrotation Xrotation Zrotation
										End Site
										{
											OFFSET -1.69032 -0.45292 0.00000
										}
									}
								}
							}
						}
					}
					JOINT LeftShoulder
					{
						OFFSET 0.78828 -1.31380 4.25672
						CHANNELS 3 Xrotation Yrotation Zrotation
						JOINT LeftArm
						{
							OFFSET 3.91513 0.00000 0.00000
							CHANNELS 3 Xrotation Yrotation Zrotation
							JOINT LeftForeArm
							{
								OFFSET 6.91491 0.00000 0.00000
								CHANNELS 3 Xrotation Yrotation Zrotation
								JOINT LeftHand
								{
									OFFSET 6.09622 0.00000 0.00000
									CHANNELS 3 Xrotation Yrotation Zrotation
									JOINT LeftHandEnd
									{
										OFFSET 1.74995 0.00000 0.00000
										CHANNELS 3 Xrotation Yrotation Zrotation
										End Site
										{
											OFFSET 1.74995 0.00000 0.00000
										}
									}
									JOINT LeftHandThumb1
									{
										OFFSET 0.69998 -1.16663 -0.46665
										CHANNELS 3 Yrotation Xrotation Zrotation
										End Site
										{
											OFFSET 1.69032 -0.45292 0.00000
										}
									}
								}
							}
						}
					}
				}
			}
		}
	}
	JOINT RightUpLeg
	{
		OFFSET -2.33857 0.00000 -0.68318
		CHANNELS 3 Xrotation Yrotation Zrotation
		JOINT RightLeg
		{
			OFFSET 0.00000 0.00000 -10.74496
			CHANNELS 3 Xrotation Yrotation Zrotation
			JOINT RightFoot
			{
				OFFSET 0.00000 0.00000 -10.93085
				CHANNELS 3 Xrotation Yrotation Zrotation
				JOINT RightToeBase
				{
					OFFSET 0.00000 -4.08727 -1.48765
					CHANNELS 3 Xrotation Yrotation Zrotation
					End Site
					{
						OFFSET 0.00000 -1.89187 -0.00000
					}
				}
			}
		}
	}
	JOINT LeftUpLeg
	{
		OFFSET 2.33857 0.00000 -0.68318
		CHANNELS 3 Xrotation Yrotation Zrotation
		JOINT LeftLeg
		{
			OFFSET 0.00000 0.00000 -10.74496
			CHANNELS 3 Xrotation Yrotation Zrotation
			JOINT LeftFoot
			{
				OFFSET 0.00000 0.00000 -10.93085
				CHANNELS 3 Xrotation Yrotation Zrotation
				JOINT LeftToeBase
				{
					OFFSET 0.00000 -4.08727 -1.48765
					CHANNELS 3 Xrotation Yrotation Zrotation
					End Site
					{
						OFFSET 0.00000 -1.89187 -0.00000
					}
				}
			}
		}
	}
}
MOTION
Frames: 6
Frame Time: 0.008342
 -0.3139 75.1368 24.5148 -12.2831 2.3102 165.9547 14.9905 -0.5799 -2.3419 3.9067 -0.2522 -1.1664 14.7256 6.5865 -7.0562 -4.6691 5.3231 -5.2509 -37.6053 -9.2306 9.5558 6.1762 -4.1908 0.6483 3.2663 4.3524 31.0449 -3.5623 -47.5169 32.3952 0.0000 0.0000 21.7039 15.1580 28.3315 -6.5532 -0.0000 0.0000 -0.0000 -0.0000 -0.0000 0.0000 -15.9913 -12.6242 -2.4730 28.9129 31.1739 -78.7147 -0.0000 0.0000 2.7154 3.7555 -22.7594 -4.6438 0.0000 0.0000 -0.0000 0.0000 0.0000 -0.0000 -19.1702 0.1372 -9.5924 2.7010 0.0000 0.0000 4.9378 -0.1039 5.6755 1.0233 0.0000 0.0000 -23.0878 -8.9679 12.4262 12.2705 0.0000 0.0000 1.2244 6.1022 6.2640 -0.7504 0.0000 -0.0000
 -0.3009 75.1974 24.5257 -11.6587 2.2949 165.6501 14.8030 -0.5262 -2.3149 3.8770 -0.2753 -1.1649 14.7945 6.5344 -7.2312 -4.6369 5.3334 -5.2583 -37.3470 -8.9808 9.4663 6.3788 -4.2456 0.7297 3.3946 4.1196 30.5785 -3.6061 -46.6178 32.7477 0.0000 0.0000 21.5604 15.1806 28.0323 -6.6043 -0.0000 0.0000 0.0000 -0.0000 0.0000 0.0000 -16.2804 -12.6426 -2.5577 28.6880 31.3612 -78.9134 -0.0000 0.0000 2.6677 3.6405 -22.8749 -4.8916 -0.0000 0.0000 -0.0000 0.0000 -0.0000 0.0000 -18.1966 0.1592 -9.2775 2.2931 0.0000 0.0000 4.9225 -0.2634 5.6863 0.9080 0.0000 0.0000 -23.3774 -9.1972 12.8538 14.4146 0.0000 0.0000 0.9231 5.7176 6.0749 -1.2832 0.0000 -0.0000
 -0.2844 75.2621 24.5370 -10.9790 2.2437 165.3734 14.6222 -0.4816 -2.2885 3.8770 -0.2948 -1.1658 14.9269 6.4991 -7.4138 -4.6069 5.3538 -5.2558 -37.1004 -8.8187 9.3505 6.5928 -4.2384 0.7333 3.5368 3.8197 30.1073 -3.5834 -45.5744 33.1820 0.0000 0.0000 21.3240 15.1364 27.7542 -6.6433 0.0000 0.0000 0.0000 -0.0000 0.0000 0.0000 -16.5872 -12.7045 -2.6562 28.4545 31.5500 -79.1525 -0.0000 0.0000 2.5915 3.5571 -23.0021 -5.1112 0.0000 -0.0000 -0.0000 -0.0000 0.0000 0.0000 -17.1144 0.1682 -8.9045 1.8339 0.0000 0.0000 4.8981 -0.4404 5.6068 0.7734 0.0000 0.0000 -23.7163 -9.4770 13.2507 16.7566 0.0000 0.0000 0.6834 5.1656 5.7683 -1.8456 0.0000 -0.0000
 -0.2646 75.3303 24.5483 -10.2248 2.1419 165.1196 14.4958 -0.4498 -2.2631 3.8999 -0.3104 -1.1692 15.0978 6.4777 -7.5968 -4.5817 5.3821 -5.2461 -36.8568 -8.7529 9.2348 6.8218 -4.1689 0.6337 3.6913 3.4682 29.6391 -3.5157 -44.4147 33.6704 0.0000 0.0000 21.0013 14.9891 27.4986 -6.6557 0.0000 -0.0000 -0.0000 -0.0000 -0.0000 0.0000 -16.8933 -12.8010 -2.7550 28.2027 31.7175 -79.4403 -0.0000 0.0000 2.4947 3.5295 -23.1083 -5.2844 -0.0000 0.0000 -0.0000 -0.0000 -0.0000 0.0000 -15.9018 0.1560 -8.4777 1.3241 0.0000 0.0000 4.8631 -0.6326 5.4471 0.6217 0.0000 0.0000 -24.0649 -9.8134 13.5816 19.2515 0.0000 0.0000 0.4919 4.4762 5.3232 -2.4040 0.0000 -0.0000
 -0.2443 75.3991 24.5587 -9.4456 2.0110 164.8751 14.4104 -0.4099 -2.2164 3.9392 -0.3248 -1.1626 15.2652 6.4497 -7.7537 -4.5476 5.3587 -5.2418 -36.6529 -8.4492 8.9113 7.0570 -4.3533 0.7146 3.8464 3.1423 29.1507 -3.4548 -43.1928 34.1467 0.0000 0.0000 20.6457 14.8828 27.2657 -6.7404 -0.0000 0.0000 0.0000 0.0000 0.0000 0.0000 -17.2410 -12.8152 -2.8759 27.9390 31.8481 -79.7243 -0.0000 0.0000 2.3793 3.5433 -23.1675 -5.4998 -0.0000 -0.0000 -0.0000 -0.0000 0.0000 -0.0000 -14.6428 0.1350 -7.9806 0.8007 0.0000 0.0000 4.8078 -0.8382 5.2146 0.4499 0.0000 0.0000 -24.4586 -10.1902 13.8231 21.8362 0.0000 0.0000 0.3382 3.6927 4.7257 -2.9383 0.0000 -0.0000
 -0.2239 75.4655 24.5674 -8.6824 1.8491 164.6345 14.3412 -0.3915 -2.1750 3.9855 -0.3291 -1.1659 15.4347 6.4417 -7.9100 -4.5329 5.3732 -5.2298 -36.4205 -8.4665 8.7314 7.3090 -4.2549 0.5167 3.9880 2.7738 28.7174 -3.3872 -41.9313 34.5986 0.0000 0.0000 20.2156 14.6190 27.0484 -6.7485 -0.0000 -0.0000 0.0000 0.0000 -0.0000 0.0000 -17.5498 -12.9168 -2.9710 27.6479 31.9639 -80.0836 -0.0000 0.0000 2.2419 3.5821 -23.2000 -5.6138 0.0000 -0.0000 0.0000 -0.0000 0.0000 0.0000 -13.3955 0.0925 -7.4339 0.2848 0.0000 0.0000 4.7295 -1.0474 4.9342 0.2824 0.0000 0.0000 -24.9278 -10.6136 13.9420 24.4609 0.0000 0.0000 0.1912 2.8906 3.9527 -3.3926 0.0000 -0.0000
